<?xml version="1.0" encoding="UTF-8"?>
<svg id="Layer_1" data-name="Layer 1" xmlns="http://www.w3.org/2000/svg" viewBox="0 0 32 32">
  <defs>
    <style>
      .cls-1 {
        fill: #fff;
        stroke-width: 0px;
      }
    </style>
  </defs>
  <path class="cls-1" d="M28.44,0H3.56C1.59,0,0,1.59,0,3.56v24.89c0,1.96,1.59,3.56,3.56,3.56h24.89c1.96,0,3.56-1.59,3.56-3.56V3.56c0-1.96-1.59-3.56-3.56-3.56M28.44,28.44H3.56V3.56h24.89v24.89M24.89,9.6l-6.4,6.4,6.4,6.4-2.49,2.49-6.4-6.4-6.4,6.4-2.49-2.49,6.4-6.4-6.4-6.4,2.49-2.49,6.4,6.4,6.4-6.4,2.49,2.49Z"/>
</svg>