<?xml version="1.0" encoding="UTF-8"?>
<svg id="Layer_1" data-name="Layer 1" xmlns="http://www.w3.org/2000/svg" viewBox="0 0 256 256.94">
  <defs>
    <style>
      .cls-1 {
        stroke-width: 6px;
      }

      .cls-1, .cls-2, .cls-3, .cls-4 {
        fill: #fff;
        stroke: #fff;
        stroke-miterlimit: 10;
      }

      .cls-2 {
        stroke-width: 4px;
      }

      .cls-3 {
        stroke-width: 13px;
      }

      .cls-4 {
        stroke-width: 5px;
      }
    </style>
  </defs>
  <path class="cls-1" d="M253,253.94H3V3h250v250.94ZM12.43,244.51h231.13V12.43H12.43v232.08Z"/>
  <rect class="cls-3" x="12.5" y="65.47" width="231" height="3"/>
  <path class="cls-4" d="M109.18,100.69h-38.57v38.57h8.57v-30h30v-8.57Z"/>
  <path class="cls-4" d="M70.61,182.12v38.57h38.57v-8.57h-30v-30h-8.57Z"/>
  <path class="cls-4" d="M190.61,139.27v-38.57h-38.57v8.57h30v30h8.57Z"/>
  <path class="cls-4" d="M152.04,220.69h38.57v-38.57h-8.57v30h-30v8.57Z"/>
  <path class="cls-4" d="M171.28,135.54l-38.57-21.43c-1.33-.77-2.96-.77-4.29,0l-38.57,21.43c-1.31.78-2.11,2.2-2.1,3.73v42.86c0,1.55.84,2.97,2.19,3.73l38.57,21.43c1.33.77,2.96.77,4.29,0l38.57-21.43c1.31-.78,2.11-2.2,2.1-3.73v-42.86c0-1.55-.84-2.97-2.19-3.73ZM130.61,122.72l29.74,16.54-29.74,16.54-29.74-16.54,29.74-16.54ZM96.33,146.55l30,16.67v33.04l-30-16.67v-33.04ZM134.9,196.27v-33.04l30-16.67v33.04l-30,16.67Z"/>
  <rect class="cls-2" x="207" y="26.97" width="21" height="21"/>
</svg>