<?xml version="1.0" encoding="UTF-8"?>
<svg id="Layer_1" data-name="Layer 1" xmlns="http://www.w3.org/2000/svg" viewBox="0 0 29.8 29.93">
  <defs>
    <style>
      .cls-1 {
        fill: none;
        stroke: #000;
        stroke-miterlimit: 4.44;
        stroke-width: .89px;
      }

      .cls-2, .cls-3 {
        stroke-width: 0px;
      }

      .cls-3 {
        fill: #fff;
      }
    </style>
  </defs>
  <path class="cls-3" d="m21.57.44h-13.33C3.93.44.44,3.95.44,8.27v13.39c0,4.32,3.49,7.82,7.79,7.82h13.33c4.3,0,7.79-3.5,7.79-7.82v-13.39c0-4.32-3.49-7.82-7.79-7.82"/>
  <path class="cls-1" d="m21.57.44h-13.33C3.93.44.44,3.95.44,8.27v13.39c0,4.32,3.49,7.82,7.79,7.82h13.33c4.3,0,7.79-3.5,7.79-7.82v-13.39c0-4.32-3.49-7.82-7.79-7.82h0Z"/>
  <ellipse class="cls-1" cx="14.9" cy="14.96" rx="6.98" ry="7.01"/>
  <ellipse class="cls-2" cx="23.37" cy="6.45" rx="1.5" ry="1.5"/>
</svg>