<?xml version="1.0" encoding="UTF-8"?>
<svg id="Layer_1" data-name="Layer 1" xmlns="http://www.w3.org/2000/svg" viewBox="0 0 112 14.89">
  <defs>
    <style>
      .cls-1 {
        stroke: #000;
        stroke-miterlimit: 10;
      }

      .cls-1, .cls-2 {
        fill: #000;
      }

      .cls-2, .cls-3 {
        stroke-width: 0px;
      }

      .cls-3 {
        fill: #fff;
      }
    </style>
  </defs>
  <g>
    <rect class="cls-2" x="23.5" y="6.5" width="88" height="1"/>
    <polygon class="cls-3" points="112 6 23 6 23 8 112 8 112 6 112 6"/>
  </g>
  <g>
    <rect class="cls-3" x="13.5" y="8.5" width="15" height="1" transform="translate(-.89 15.53) rotate(-39.8)"/>
    <path class="cls-3" d="M26.38,4.52h0s-10.76,8.96-10.76,8.96h0s10.76-8.96,10.76-8.96M26.51,3.11l-12.29,10.24,1.28,1.54,12.29-10.24-1.28-1.54h0Z"/>
  </g>
  <rect id="block1" class="cls-1" x="6.5" y="3.5" width="105" height="2"/>
  <g>
    <rect class="cls-3" x="22.5" y="2.5" width="89" height="1"/>
    <polygon class="cls-3" points="112 2 22 2 22 4 112 4 112 2 112 2"/>
  </g>
  <g>
    <rect class="cls-2" x="11.86" y="5.08" width="14.04" height="1.05" transform="translate(.79 13.38) rotate(-39.8)"/>
    <path class="cls-3" d="M23.87,1.41l.03.04-10.02,8.35-.03-.04L23.87,1.41M24,0l-11.56,9.63,1.31,1.57L25.31,1.57,24,0h0Z"/>
  </g>
  <g id="block2">
    <polygon class="cls-2" points="112 0 0 0 0 2 112 2 112 0 112 0"/>
  </g>
</svg>