<?xml version="1.0" encoding="UTF-8"?>
<svg id="Layer_1" data-name="Layer 1" xmlns="http://www.w3.org/2000/svg" viewBox="0 0 32 32">
  <defs>
    <style>
      .cls-1 {
        fill: #fff;
        stroke-width: 0px;
      }
    </style>
  </defs>
  <path class="cls-1" d="m16,0C21.63,0,24.83,4.2,25.29,9.27h.14c3.63,0,6.56,3.3,6.56,7.37s-2.94,7.37-6.56,7.37h-1.64s-.02.06-.02.06l-3.39,7.22c-.3.65-.99.89-1.55.54-.49-.31-.71-.98-.54-1.59l.08-.22,2.82-6.01h-4.24l-.02.07-3.39,7.22c-.3.65-.99.89-1.55.54-.49-.31-.71-.98-.54-1.59l.08-.22,2.82-6.01h-4.27l-3.4,7.28c-.26.57-.84.83-1.36.63l-.19-.1c-.48-.31-.71-.98-.54-1.59l.08-.22,2.8-6.01h-.93c-3.63,0-6.56-3.3-6.56-7.37s2.72-7.13,6.16-7.36h.54C7.17,4.17,10.37,0,16,0"/>
</svg>