<?xml version="1.0" encoding="UTF-8"?>
<svg id="Layer_1" data-name="Layer 1" xmlns="http://www.w3.org/2000/svg" viewBox="0 0 24 24">
  <defs>
    <style>
      .cls-1 {
        fill: #fff;
        stroke-width: 0px;
      }
    </style>
  </defs>
  <path class="cls-1" d="m21.32,0H2.67C1.19,0,0,1.19,0,2.67v18.66c0,1.47,1.19,2.67,2.67,2.67h18.66c1.47,0,2.67-1.19,2.67-2.67V2.67c0-1.47-1.19-2.67-2.67-2.67m0,21.32H2.67V2.67h18.66v18.66m-2.67-14.13l-4.8,4.8,4.8,4.8-1.87,1.87-4.8-4.8-4.8,4.8-1.87-1.87,4.8-4.8-4.8-4.8,1.87-1.87,4.8,4.8,4.8-4.8,1.87,1.87Z"/>
</svg>