<?xml version="1.0" encoding="UTF-8"?>
<svg id="Layer_1" data-name="Layer 1" xmlns="http://www.w3.org/2000/svg" viewBox="0 0 40 24">
  <defs>
    <style>
      .cls-1 {
        fill: #fff;
        stroke-width: 0px;
      }
    </style>
  </defs>
  <path class="cls-1" d="m0,1.25C0,.56.56,0,1.25,0h37.5c.69,0,1.25.56,1.25,1.25v21.5c0,.69-.56,1.25-1.25,1.25H1.25c-.69,0-1.25-.56-1.25-1.25V1.25Zm20,3.52v14.46c0,.43.35.77.77.77h14.46c.43,0,.77-.35.77-.77V4.77c0-.43-.35-.77-.77-.77h-14.46c-.43,0-.77.35-.77.77Zm-8.86,2.22c-.2-.45-.65-.74-1.14-.74s-.94.29-1.14.74l-4,9c-.28.63,0,1.37.64,1.65s1.37,0,1.65-.64l.35-.8c.12-.28.4-.46.71-.46h3.59c.31,0,.58.18.71.46l.35.8c.28.63,1.02.91,1.65.64s.91-1.02.64-1.65l-4-9Zm-.44,5.17h0c.23.51-.15,1.09-.71,1.09h0c-.56,0-.93-.57-.71-1.09h0c.27-.61,1.14-.61,1.41,0Zm17.29-5.91c.69,0,1.25.56,1.25,1.25v.25h3.75c.69,0,1.25.56,1.25,1.25s-.56,1.25-1.25,1.25h-.12l-.1.28c-.56,1.52-1.4,2.91-2.48,4.09.06.04.11.07.17.1l1.18.71c.59.36.78,1.12.43,1.71s-1.12.78-1.71.43l-1.18-.71c-.28-.17-.55-.34-.82-.53-.66.47-1.37.88-2.12,1.21l-.23.1c-.63.28-1.37,0-1.65-.64s0-1.37.64-1.65l.23-.1c.4-.18.79-.38,1.16-.61l-.76-.76c-.49-.49-.49-1.28,0-1.77s1.28-.49,1.77,0l.91.91.03.03c.48-.5.9-1.06,1.26-1.65.31-.51-.08-1.16-.68-1.15h-.92s-4.5,0-4.5,0c-.69,0-1.25-.56-1.25-1.25s.56-1.25,1.25-1.25h3.25v-.25c0-.69.56-1.25,1.25-1.25"/>
</svg>