<?xml version="1.0" encoding="UTF-8"?>
<svg id="Layer_1" data-name="Layer 1" xmlns="http://www.w3.org/2000/svg" viewBox="0 0 9.08 24">
  <defs>
    <style>
      .cls-1 {
        fill: #fff;
        stroke-width: 0px;
      }
    </style>
  </defs>
  <path class="cls-1" d="m4.97,2.96h1.12c.06,0,.11.04.11.09,0,0,0,0,0,0v.06s0,.05-.03.07c-.01,0-.02.02-.02.03v.31c0,.3-.28.54-.62.54h-.23c-.34,0-.62-.24-.62-.54v-.17c0-.06-.05-.1-.12-.1s-.12.05-.12.1h0v.17c0,.3-.28.54-.62.54h-.23c-.34,0-.62-.24-.62-.54v-.31s-.01-.03-.03-.03c-.03-.02-.05-.04-.05-.07v-.06c0-.05.04-.09.1-.1,0,0,0,0,0,0h1.13c.1,0,.19.04.25.1.04.05.1.07.16.07.06,0,.12-.03.16-.07.06-.07.15-.1.25-.1m-.44,1.45c.17,0,.33-.03.48-.1.02-.01.06,0,.07.01.01.02.01.03,0,.05-.12.16-.33.26-.55.26-.23,0-.44-.1-.55-.27-.01-.02-.01-.04,0-.05.01-.02.04-.02.06-.01.15.07.32.1.49.1"/>
  <path class="cls-1" d="m7.24,4.73l.02.02c1.15.75,1.82,1.93,1.82,3.19v3.05c0,.3-.15.59-.42.78-.04.03-.07.06-.12.08,0,.7-.41,1.34-1.09,1.71v6.46h-.56v.95c0,.8-.73,1.44-1.64,1.44-.25,0-.5-.05-.73-.15-.81.35-1.79.06-2.19-.65-.11-.2-.17-.42-.17-.64v-.95h-.56v-6.46c-.68-.36-1.1-1.01-1.1-1.71h0c-.27-.16-.45-.41-.5-.7v-.1S0,7.95,0,7.95c0-1.26.68-2.45,1.82-3.2-.08-.17-.13-.35-.13-.53-.23-.31-.3-.7-.18-1.06-.4-.43-.33-1.07.16-1.42.07-.05.14-.09.22-.13l.05-.38C2.06.46,2.85-.08,3.72.01c.13.01.26.04.39.09l.45.16.39-.14c.8-.3,1.72.03,2.06.73.06.13.1.26.12.39l.05.37c.37.16.61.49.64.85v.06c0,.24-.09.46-.27.64.12.36.05.74-.18,1.06,0,.18-.05.35-.13.51m-2.25,15.93c.07.06.17.1.27.1.21,0,.38-.15.38-.34v-.91h-.76v.91c0,.09.04.17.11.24m-1.45,0c.07.06.17.1.27.1.21,0,.38-.15.38-.34v-.91h-.76v.91c0,.09.04.17.11.24m-1.02-7.21v5.66h4.03v-5.66h-.22c-.13,0-.23-.09-.23-.2v-1.6h-3.13v1.6c0,.11-.1.2-.23.2h-.23Zm3.69-7.25h-.17s-.07-.03-.07-.07v-.22c-.24.12-.51.2-.79.23-.07.09-.15.17-.24.24-.02.02-.06.02-.09,0,0,0,0,0-.01-.01l-.02-.03.19,1.94c-.12.23-.28.45-.45.66,1.08-.53,1.76-1.53,1.79-2.62,0-.07-.05-.12-.13-.13,0,0,0,0-.01,0m-3.46.08s0,.03,0,.05c.03,1.09.72,2.09,1.8,2.62-.17-.21-.33-.43-.45-.66l.18-1.96-.03.05s-.05.03-.08.02c0,0-.02,0-.02-.01-.09-.07-.17-.15-.23-.24-.28-.04-.54-.13-.78-.26v.25s-.03.06-.07.06h-.17c-.06,0-.11.03-.13.08m3.9-2.54c.08-.14.08-.31,0-.45-.04-.07-.1-.13-.17-.18v-.39h-3.87v.39c-.25.15-.31.46-.14.68.04.05.08.09.14.12v.27c0,.27.19.51.48.6h.04s.01.03.02.04l.02.02c.24.33.65.53,1.1.53h.64c.42,0,.82-.19,1.06-.49.04-.04.07-.08.1-.13.26-.1.42-.33.42-.58v-.26c.07-.04.13-.1.17-.17m-.36-1.94h-3.5l-.07.5h3.63l-.07-.5ZM1.41,11.22v.62c0,.46.3.89.78,1.08l.31.13h.01v-1.83h-1.1Zm6.01,1.27c.14-.19.21-.41.21-.64v-.64h-1.08v1.84l.3-.12c.24-.09.43-.25.57-.44m-.63,10.72H2.26c-.25,0-.45.18-.45.4s.2.4.45.4h4.54c.25,0,.45-.18.45-.4s-.2-.4-.45-.4"/>
</svg>