<?xml version="1.0" encoding="UTF-8"?>
<svg id="Layer_1" xmlns="http://www.w3.org/2000/svg" viewBox="0 0 23.96 23.92">
  <defs>
    <style>
      .cls-1 {
        fill: #fff;
        stroke: #fff;
        stroke-miterlimit: 10;
      }
    </style>
  </defs>
  <path class="cls-1" d="M9.32,10.21c0-.49.39-.88.88-.88h7.06c.49,0,.88.39.88.88s-.39.88-.88.88h-7.06c-.49,0-.88-.39-.88-.88M.76,23.16h0c-.34-.34-.34-.9,0-1.24l5.52-5.51c-3-3.6-3-8.82,0-12.42C9.71-.13,15.84-.68,19.96,2.75c4.12,3.43,4.68,9.54,1.24,13.66-3.43,4.12-9.56,4.67-13.68,1.24l-5.52,5.51h0c-.34.34-.9.34-1.24,0M13.73,18.14c4.38,0,7.93-3.55,7.94-7.93,0-4.37-3.56-7.93-7.94-7.93s-7.94,3.55-7.94,7.93,3.56,7.93,7.94,7.93"/>
</svg>