<?xml version="1.0" encoding="UTF-8"?>
<svg id="Layer_1" data-name="Layer 1" xmlns="http://www.w3.org/2000/svg" viewBox="0 0 24 24">
  <defs>
    <style>
      .cls-1 {
        fill: #fff;
        stroke-width: 0px;
      }
    </style>
  </defs>
  <path class="cls-1" d="m9.22,10.17c0-.51.41-.92.92-.92h7.38c.51,0,.92.41.92.92,0,.51-.41.92-.92.92h-7.38c-.51,0-.92-.41-.92-.92M.27,23.73h0c-.36-.36-.36-.94,0-1.3l5.77-5.77c-3.14-3.77-3.14-9.23,0-13,3.59-4.31,9.99-4.89,14.3-1.3,4.31,3.59,4.89,9.99,1.3,14.3-3.59,4.31-9.99,4.89-14.3,1.3l-5.77,5.77h0c-.36.36-.94.36-1.3,0m13.56-5.26c4.58,0,8.29-3.72,8.3-8.3,0-4.58-3.72-8.3-8.3-8.3S5.53,5.59,5.53,10.17s3.72,8.3,8.3,8.3"/>
</svg>