<?xml version="1.0" encoding="UTF-8"?>
<svg id="Layer_1" xmlns="http://www.w3.org/2000/svg" viewBox="0 0 23.92 23.88">
  <defs>
    <style>
      .cls-1 {
        fill: #fff;
        stroke: #fff;
        stroke-miterlimit: 10;
      }
    </style>
  </defs>
  <path class="cls-1" d="M9.31,10.19c0-.49.39-.88.88-.88h2.65v-2.64c0-.49.39-.88.88-.88s.88.39.88.88v2.64h2.65c.49,0,.88.39.88.88s-.39.88-.88.88h-2.65v2.64c0,.49-.39.88-.88.88s-.88-.39-.88-.88v-2.64h-2.65c-.49,0-.88-.39-.88-.88M.76,23.12h0c-.34-.34-.34-.9,0-1.24l5.51-5.5c-3-3.59-3-8.8,0-12.39C9.7-.13,15.81-.68,19.93,2.74c4.12,3.42,4.67,9.52,1.24,13.63-3.43,4.11-9.54,4.66-13.66,1.24l-5.51,5.5h0c-.34.34-.9.34-1.24,0M13.71,18.1c4.37,0,7.92-3.55,7.93-7.91,0-4.37-3.55-7.91-7.93-7.91s-7.93,3.55-7.93,7.91,3.55,7.91,7.93,7.91"/>
</svg>